<?xml version="1.0" encoding="UTF-8" standalone="no"?>
<!-- Generator: Adobe Illustrator 13.0.2, SVG Export Plug-In . SVG Version: 6.00 Build 14948)  -->

<svg
   xmlns:dc="http://purl.org/dc/elements/1.1/"
   xmlns:cc="http://creativecommons.org/ns#"
   xmlns:rdf="http://www.w3.org/1999/02/22-rdf-syntax-ns#"
   xmlns:svg="http://www.w3.org/2000/svg"
   xmlns="http://www.w3.org/2000/svg"
   xmlns:xlink="http://www.w3.org/1999/xlink"
   xmlns:sodipodi="http://sodipodi.sourceforge.net/DTD/sodipodi-0.dtd"
   xmlns:inkscape="http://www.inkscape.org/namespaces/inkscape"
   version="1.0"
   id="Layer_1"
   x="0px"
   y="0px"
   width="220px"
   height="254.404px"
   viewBox="0 0 220 254.404"
   enable-background="new 0 0 220 254.404"
   xml:space="preserve"
   inkscape:version="0.48.2 r9819"
   sodipodi:docname="iprediaos-logo-sprite.svg"><metadata
   id="metadata217"><rdf:RDF><cc:Work
       rdf:about=""><dc:format>image/svg+xml</dc:format><dc:type
         rdf:resource="http://purl.org/dc/dcmitype/StillImage" /></cc:Work></rdf:RDF></metadata><defs
   id="defs215"><linearGradient
     id="linearGradient3996"><stop
       style="stop-color:#d73000;stop-opacity:0.32203391;"
       offset="0"
       id="stop3998" /><stop
       style="stop-color:#000000;stop-opacity:0;"
       offset="1"
       id="stop4000" /></linearGradient><linearGradient
     id="linearGradient3988"><stop
       id="stop3990"
       offset="0"
       style="stop-color:#a10000;stop-opacity:0.67796612;" /><stop
       id="stop3992"
       offset="1"
       style="stop-color:#9d0000;stop-opacity:0.43220338;" /></linearGradient><radialGradient
     inkscape:collect="always"
     xlink:href="#linearGradient3988"
     id="radialGradient3986"
     cx="201.5"
     cy="233.5"
     fx="201.5"
     fy="233.5"
     r="201.5"
     gradientTransform="matrix(1,0,0,1.1588089,0,-37.081886)"
     gradientUnits="userSpaceOnUse" /><radialGradient
     inkscape:collect="always"
     xlink:href="#linearGradient3996"
     id="radialGradient4002"
     cx="117.50015"
     cy="127.202"
     fx="117.50015"
     fy="127.202"
     r="172.32132"
     gradientTransform="matrix(1,0,0,0.96872176,0,3.978655)"
     gradientUnits="userSpaceOnUse" /><radialGradient
     gradientUnits="userSpaceOnUse"
     gradientTransform="matrix(1,0,0,0.10913067,0,911.8264)"
     r="152.5135"
     fy="1023.5243"
     fx="208.68185"
     cy="1023.5243"
     cx="208.68185"
     id="radialGradient3810"
     xlink:href="#linearGradient3851"
     inkscape:collect="always" /><linearGradient
     y2="340.48099"
     x2="402.97031"
     y1="400.87704"
     x1="458.41583"
     gradientUnits="userSpaceOnUse"
     id="linearGradient3020"
     xlink:href="#linearGradient3851"
     inkscape:collect="always" /><linearGradient
     y2="340.48099"
     x2="402.97031"
     y1="400.87704"
     x1="458.41583"
     gradientUnits="userSpaceOnUse"
     id="linearGradient3018"
     xlink:href="#linearGradient3851"
     inkscape:collect="always" /><linearGradient
     y2="340.48099"
     x2="402.97031"
     y1="400.87704"
     x1="458.41583"
     gradientUnits="userSpaceOnUse"
     id="linearGradient3016"
     xlink:href="#linearGradient3851"
     inkscape:collect="always" /><linearGradient
     y2="340.48099"
     x2="402.97031"
     y1="400.87704"
     x1="458.41583"
     gradientUnits="userSpaceOnUse"
     id="linearGradient3014"
     xlink:href="#linearGradient3851"
     inkscape:collect="always" /><linearGradient
     y2="340.48099"
     x2="402.97031"
     y1="400.87704"
     x1="458.41583"
     gradientUnits="userSpaceOnUse"
     id="linearGradient3012"
     xlink:href="#linearGradient3851"
     inkscape:collect="always" /><linearGradient
     y2="340.48099"
     x2="402.97031"
     y1="400.87704"
     x1="458.41583"
     gradientUnits="userSpaceOnUse"
     id="linearGradient3010"
     xlink:href="#linearGradient3851"
     inkscape:collect="always" /><linearGradient
     y2="340.48099"
     x2="402.97031"
     y1="400.87704"
     x1="458.41583"
     gradientUnits="userSpaceOnUse"
     id="linearGradient3008"
     xlink:href="#linearGradient3851"
     inkscape:collect="always" /><linearGradient
     y2="340.48099"
     x2="402.97031"
     y1="400.87704"
     x1="458.41583"
     gradientUnits="userSpaceOnUse"
     id="linearGradient3006"
     xlink:href="#linearGradient3851"
     inkscape:collect="always" /><linearGradient
     y2="340.48099"
     x2="402.97031"
     y1="400.87704"
     x1="458.41583"
     gradientUnits="userSpaceOnUse"
     id="linearGradient3004"
     xlink:href="#linearGradient3851"
     inkscape:collect="always" /><linearGradient
     y2="340.48099"
     x2="402.97031"
     y1="400.87704"
     x1="458.41583"
     gradientUnits="userSpaceOnUse"
     id="linearGradient4297"
     xlink:href="#linearGradient3851"
     inkscape:collect="always" /><linearGradient
     gradientUnits="userSpaceOnUse"
     y2="413.66174"
     x2="476.44885"
     y1="366.13699"
     x1="83.801704"
     id="linearGradient3857"
     xlink:href="#linearGradient3851"
     inkscape:collect="always" /><linearGradient
     gradientUnits="userSpaceOnUse"
     y2="366.13699"
     x2="511.58249"
     y1="366.13699"
     x1="85.301704"
     id="linearGradient3833"
     xlink:href="#linearGradient3827"
     inkscape:collect="always" /><linearGradient
     id="linearGradient3827"
     inkscape:collect="always"><stop
       id="stop3829"
       offset="0"
       style="stop-color:#000000;stop-opacity:1;" /><stop
       id="stop3831"
       offset="1"
       style="stop-color:#000000;stop-opacity:0;" /></linearGradient><linearGradient
     id="linearGradient3851"><stop
       id="stop3853"
       offset="0"
       style="stop-color:#803300;stop-opacity:1;" /><stop
       style="stop-color:#e58600;stop-opacity:1;"
       offset="0.5"
       id="stop4299" /><stop
       id="stop3855"
       offset="1"
       style="stop-color:#801100;stop-opacity:1;" /></linearGradient><linearGradient
     inkscape:collect="always"
     xlink:href="#linearGradient3851"
     id="linearGradient4377"
     gradientUnits="userSpaceOnUse"
     x1="458.41583"
     y1="400.87704"
     x2="402.97031"
     y2="340.48099" /><linearGradient
     inkscape:collect="always"
     xlink:href="#linearGradient3851"
     id="linearGradient4379"
     gradientUnits="userSpaceOnUse"
     x1="458.41583"
     y1="400.87704"
     x2="402.97031"
     y2="340.48099" /><linearGradient
     inkscape:collect="always"
     xlink:href="#linearGradient3851"
     id="linearGradient4381"
     gradientUnits="userSpaceOnUse"
     x1="458.41583"
     y1="400.87704"
     x2="402.97031"
     y2="340.48099" /><linearGradient
     inkscape:collect="always"
     xlink:href="#linearGradient3851"
     id="linearGradient4383"
     gradientUnits="userSpaceOnUse"
     x1="458.41583"
     y1="400.87704"
     x2="402.97031"
     y2="340.48099" /><linearGradient
     inkscape:collect="always"
     xlink:href="#linearGradient3851"
     id="linearGradient4385"
     gradientUnits="userSpaceOnUse"
     x1="458.41583"
     y1="400.87704"
     x2="402.97031"
     y2="340.48099" /><linearGradient
     inkscape:collect="always"
     xlink:href="#linearGradient3851"
     id="linearGradient4387"
     gradientUnits="userSpaceOnUse"
     x1="458.41583"
     y1="400.87704"
     x2="402.97031"
     y2="340.48099" /><linearGradient
     inkscape:collect="always"
     xlink:href="#linearGradient3851"
     id="linearGradient4389"
     gradientUnits="userSpaceOnUse"
     x1="458.41583"
     y1="400.87704"
     x2="402.97031"
     y2="340.48099" /><linearGradient
     inkscape:collect="always"
     xlink:href="#linearGradient3851"
     id="linearGradient4391"
     gradientUnits="userSpaceOnUse"
     x1="458.41583"
     y1="400.87704"
     x2="402.97031"
     y2="340.48099" /><linearGradient
     inkscape:collect="always"
     xlink:href="#linearGradient3851"
     id="linearGradient4393"
     gradientUnits="userSpaceOnUse"
     x1="458.41583"
     y1="400.87704"
     x2="402.97031"
     y2="340.48099" /><linearGradient
     inkscape:collect="always"
     xlink:href="#linearGradient3851"
     id="linearGradient4395"
     gradientUnits="userSpaceOnUse"
     x1="458.41583"
     y1="400.87704"
     x2="402.97031"
     y2="340.48099" /><linearGradient
     inkscape:collect="always"
     xlink:href="#linearGradient3851"
     id="linearGradient4397"
     gradientUnits="userSpaceOnUse"
     x1="83.801704"
     y1="366.13699"
     x2="476.44885"
     y2="413.66174" /></defs><sodipodi:namedview
   pagecolor="#ffffff"
   bordercolor="#666666"
   borderopacity="1"
   objecttolerance="10"
   gridtolerance="10"
   guidetolerance="10"
   inkscape:pageopacity="0"
   inkscape:pageshadow="2"
   inkscape:window-width="1440"
   inkscape:window-height="852"
   id="namedview213"
   showgrid="false"
   inkscape:zoom="0.92765834"
   inkscape:cx="-103.97964"
   inkscape:cy="127.202"
   inkscape:window-x="0"
   inkscape:window-y="0"
   inkscape:window-maximized="0"
   inkscape:current-layer="g3" />
<g
   id="g3">
	
		
	
<g
   transform="matrix(0.49706628,0,0,0.49706628,-37.043503,-78.236573)"
   style="fill:url(#linearGradient4395);fill-opacity:1;stroke:#340000;stroke-width:4;stroke-miterlimit:4;stroke-opacity:1;stroke-dasharray:none"
   id="g4286"><path
     inkscape:connector-curvature="0"
     d="m 85.801707,311.32457 12.672,0 0,64.656 -12.672,0 0,-64.656 0,0"
     style="font-size:144px;font-style:normal;font-variant:normal;font-weight:normal;font-stretch:normal;text-align:start;line-height:125%;letter-spacing:0px;word-spacing:0px;writing-mode:lr-tb;text-anchor:start;fill:url(#linearGradient4377);fill-opacity:1;stroke:#500000;stroke-width:4;stroke-miterlimit:4;stroke-opacity:1;stroke-dasharray:none;font-family:REZ;-inkscape-font-specification:REZ"
     id="path3018" /><path
     inkscape:connector-curvature="0"
     d="m 135.21396,311.61257 c 4.51196,7e-5 8.68796,0.86407 12.528,2.592 3.93595,1.63206 7.39194,3.93606 10.368,6.912 2.97594,2.88005 5.27994,6.28805 6.912,10.224 1.72793,3.84004 2.59193,8.01604 2.592,12.528 -7e-5,4.41603 -0.86407,8.59203 -2.592,12.528 -1.63206,3.93602 -3.93606,7.39202 -6.912,10.368 -2.97606,2.97601 -6.43205,5.32801 -10.368,7.056 -3.84004,1.632 -8.01604,2.448 -12.528,2.448 l -19.44,0 0,25.92 -12.816,0 0,-58.32 c 0,-4.51196 0.816,-8.68796 2.448,-12.528 1.72799,-3.93595 4.03199,-7.34395 6.912,-10.224 2.97598,-2.97594 6.43198,-5.27994 10.368,-6.912 3.93597,-1.72793 8.11197,-2.59193 12.528,-2.592 m 0,51.84 c 2.68796,2e-5 5.23196,-0.47998 7.632,-1.44 2.39995,-1.05598 4.46395,-2.44798 6.192,-4.176 1.82395,-1.82398 3.21595,-3.93598 4.176,-6.336 1.05595,-2.39997 1.58395,-4.94397 1.584,-7.632 -5e-5,-2.68796 -0.52805,-5.18396 -1.584,-7.488 -0.96005,-2.39996 -2.35205,-4.46395 -4.176,-6.192 -1.72805,-1.82395 -3.79205,-3.21595 -6.192,-4.176 -2.40004,-1.05595 -4.94404,-1.58395 -7.632,-1.584 -2.68803,5e-5 -5.23203,0.52805 -7.632,1.584 -2.30403,0.96005 -4.36802,2.35205 -6.192,4.176 -1.72802,1.72805 -3.12002,3.79204 -4.176,6.192 -0.96002,2.30404 -1.44002,4.80004 -1.44,7.488 l 0,19.584 19.44,0 0,0"
     style="font-size:144px;font-style:normal;font-variant:normal;font-weight:normal;font-stretch:normal;text-align:start;line-height:125%;letter-spacing:0px;word-spacing:0px;writing-mode:lr-tb;text-anchor:start;fill:url(#linearGradient4379);fill-opacity:1;stroke:#500000;stroke-width:4;stroke-miterlimit:4;stroke-opacity:1;stroke-dasharray:none;font-family:REZ;-inkscape-font-specification:REZ"
     id="path3020" /><path
     inkscape:connector-curvature="0"
     d="m 210.60021,311.32457 0,12.816 -6.48,0 c -2.68803,5e-5 -5.23203,0.52805 -7.632,1.584 -2.30403,0.96005 -4.36802,2.35205 -6.192,4.176 -1.72802,1.72805 -3.12002,3.79205 -4.176,6.192 -0.96002,2.30404 -1.44002,4.80004 -1.44,7.488 l 0,32.4 -12.96,0 0,-32.4 c 0,-4.51196 0.816,-8.68796 2.448,-12.528 1.72799,-3.93595 4.07999,-7.34394 7.056,-10.224 2.97598,-2.97594 6.43198,-5.27994 10.368,-6.912 3.93597,-1.72793 8.11197,-2.59193 12.528,-2.592 l 6.48,0"
     style="font-size:144px;font-style:normal;font-variant:normal;font-weight:normal;font-stretch:normal;text-align:start;line-height:125%;letter-spacing:0px;word-spacing:0px;writing-mode:lr-tb;text-anchor:start;fill:url(#linearGradient4381);fill-opacity:1;stroke:#500000;stroke-width:4;stroke-miterlimit:4;stroke-opacity:1;stroke-dasharray:none;font-family:REZ;-inkscape-font-specification:REZ"
     id="path3022" /><path
     inkscape:connector-curvature="0"
     d="m 265.15821,353.22857 9.072,9.072 -4.464,4.464 c -3.07206,3.07201 -6.57605,5.42401 -10.512,7.056 -3.93604,1.632 -8.06404,2.448 -12.384,2.448 -4.32003,0 -8.44803,-0.816 -12.384,-2.448 -3.93602,-1.63199 -7.44002,-3.98399 -10.512,-7.056 -3.16801,-3.16798 -5.52001,-6.71998 -7.056,-10.656 -1.536,-4.03197 -2.304,-8.11197 -2.304,-12.24 0,-4.12796 0.768,-8.15996 2.304,-12.096 1.53599,-3.93595 3.88799,-7.48795 7.056,-10.656 3.16798,-3.16794 6.71998,-5.51994 10.656,-7.056 4.03197,-1.63193 8.11197,-2.44793 12.24,-2.448 4.12796,7e-5 8.15996,0.81607 12.096,2.448 4.03195,1.53606 7.63195,3.88806 10.8,7.056 l 4.464,4.464 -35.856,35.856 c 3.64797,1.82402 7.48797,2.44801 11.52,1.872 4.12796,-0.67198 7.72795,-2.54398 10.8,-5.616 l 4.464,-4.464 m -32.112,-23.184 c -3.84002,3.84004 -5.76002,8.44804 -5.76,13.824 -2e-5,2.97603 0.67198,5.80803 2.016,8.496 1.15198,-1.15197 2.87998,-2.87997 5.184,-5.184 2.39997,-2.39997 4.89597,-4.89596 7.488,-7.488 2.68797,-2.68796 5.23196,-5.23196 7.632,-7.632 2.49596,-2.39995 4.41596,-4.27195 5.76,-5.616 -3.64804,-1.82395 -7.53604,-2.44795 -11.664,-1.872 -4.03203,0.57605 -7.58402,2.40005 -10.656,5.472"
     style="font-size:144px;font-style:normal;font-variant:normal;font-weight:normal;font-stretch:normal;text-align:start;line-height:125%;letter-spacing:0px;word-spacing:0px;writing-mode:lr-tb;text-anchor:start;fill:url(#linearGradient4383);fill-opacity:1;stroke:#500000;stroke-width:4;stroke-miterlimit:4;stroke-opacity:1;stroke-dasharray:none;font-family:REZ;-inkscape-font-specification:REZ"
     id="path3024" /><path
     inkscape:connector-curvature="0"
     d="m 343.39521,285.40457 0,58.176 c -7e-5,4.41603 -0.86407,8.59203 -2.592,12.528 -1.63206,3.93602 -3.93606,7.39202 -6.912,10.368 -2.88006,2.97601 -6.28805,5.32801 -10.224,7.056 -3.93604,1.632 -8.11204,2.448 -12.528,2.448 -4.41603,0 -8.59203,-0.816 -12.528,-2.448 -3.93602,-1.72799 -7.39202,-4.07999 -10.368,-7.056 -2.97601,-2.97598 -5.32801,-6.43198 -7.056,-10.368 -1.632,-3.93597 -2.448,-8.11197 -2.448,-12.528 0,-4.51196 0.816,-8.68796 2.448,-12.528 1.72799,-3.93595 4.07999,-7.34394 7.056,-10.224 2.97598,-2.97594 6.43198,-5.27994 10.368,-6.912 3.93597,-1.72793 8.11197,-2.59193 12.528,-2.592 l 19.44,0 0,-25.92 12.816,0 m -32.256,77.76 c 2.68796,2e-5 5.18396,-0.47998 7.488,-1.44 2.39995,-1.05598 4.46395,-2.44798 6.192,-4.176 1.82395,-1.82398 3.21595,-3.93597 4.176,-6.336 1.05595,-2.39997 1.58395,-4.94397 1.584,-7.632 l 0,-19.44 -19.44,0 c -2.68803,5e-5 -5.23203,0.52805 -7.632,1.584 -2.40003,0.96005 -4.51202,2.35205 -6.336,4.176 -1.72802,1.72805 -3.12002,3.79205 -4.176,6.192 -0.96002,2.30404 -1.44002,4.80004 -1.44,7.488 -2e-5,2.68803 0.47998,5.23203 1.44,7.632 1.05598,2.40003 2.44798,4.51202 4.176,6.336 1.82398,1.72802 3.93597,3.12002 6.336,4.176 2.39997,0.96002 4.94397,1.44002 7.632,1.44"
     style="font-size:144px;font-style:normal;font-variant:normal;font-weight:normal;font-stretch:normal;text-align:start;line-height:125%;letter-spacing:0px;word-spacing:0px;writing-mode:lr-tb;text-anchor:start;fill:url(#linearGradient4385);fill-opacity:1;stroke:#500000;stroke-width:4;stroke-miterlimit:4;stroke-opacity:1;stroke-dasharray:none;font-family:REZ;-inkscape-font-specification:REZ"
     id="path3026" /><path
     inkscape:connector-curvature="0"
     d="m 347.92671,311.32457 12.672,0 0,64.656 -12.672,0 0,-64.656 0,0"
     style="font-size:144px;font-style:normal;font-variant:normal;font-weight:normal;font-stretch:normal;text-align:start;line-height:125%;letter-spacing:0px;word-spacing:0px;writing-mode:lr-tb;text-anchor:start;fill:url(#linearGradient4387);fill-opacity:1;stroke:#500000;stroke-width:4;stroke-miterlimit:4;stroke-opacity:1;stroke-dasharray:none;font-family:REZ;-inkscape-font-specification:REZ"
     id="path3028" /><path
     inkscape:connector-curvature="0"
     d="m 397.19496,311.32457 c 4.51196,7e-5 8.68796,0.86407 12.528,2.592 3.93595,1.63206 7.34395,3.93606 10.224,6.912 2.97594,2.88006 5.27994,6.28805 6.912,10.224 1.72793,3.84004 2.59193,8.01604 2.592,12.528 l 0,32.4 -32.256,0 c -4.41603,0 -8.59203,-0.816 -12.528,-2.448 -3.93602,-1.72799 -7.39202,-4.07999 -10.368,-7.056 -2.97601,-2.97598 -5.32801,-6.43198 -7.056,-10.368 -1.632,-3.93597 -2.448,-8.11197 -2.448,-12.528 0,-4.51196 0.816,-8.68796 2.448,-12.528 1.72799,-3.93595 4.07999,-7.34394 7.056,-10.224 2.97598,-2.97594 6.43198,-5.27994 10.368,-6.912 3.93597,-1.72793 8.11197,-2.59193 12.528,-2.592 m 19.44,51.84 0,-19.584 c -5e-5,-2.68796 -0.52805,-5.18396 -1.584,-7.488 -0.96005,-2.39995 -2.35205,-4.46395 -4.176,-6.192 -1.72805,-1.82395 -3.79204,-3.21595 -6.192,-4.176 -2.30404,-1.05595 -4.80004,-1.58395 -7.488,-1.584 -2.68803,5e-5 -5.23203,0.52805 -7.632,1.584 -2.40003,0.96005 -4.51202,2.35205 -6.336,4.176 -1.72802,1.72805 -3.12002,3.79205 -4.176,6.192 -0.96002,2.30404 -1.44002,4.80004 -1.44,7.488 -2e-5,2.68803 0.47998,5.23203 1.44,7.632 1.05598,2.40003 2.44798,4.51202 4.176,6.336 1.82398,1.72802 3.93597,3.12002 6.336,4.176 2.39997,0.96002 4.94397,1.44002 7.632,1.44 l 19.44,0"
     style="font-size:144px;font-style:normal;font-variant:normal;font-weight:normal;font-stretch:normal;text-align:start;line-height:125%;letter-spacing:0px;word-spacing:0px;writing-mode:lr-tb;text-anchor:start;fill:url(#linearGradient4389);fill-opacity:1;stroke:#500000;stroke-width:4;stroke-miterlimit:4;stroke-opacity:1;stroke-dasharray:none;font-family:REZ;-inkscape-font-specification:REZ"
     id="path3030" /><path
     inkscape:connector-curvature="0"
     d="m 402.07898,437.29801 c -3.19045,-3.19044 -5.56632,-6.72031 -7.12764,-10.58963 -1.56127,-4.00502 -2.34191,-8.04401 -2.34194,-12.11698 3e-5,-4.20866 0.81462,-8.28158 2.44376,-12.21881 1.56132,-4.00499 3.90326,-7.56881 7.02582,-10.69145 3.19048,-3.1904 6.75429,-5.53233 10.69145,-7.02582 3.93718,-1.62909 8.0101,-2.44368 12.21881,-2.44376 4.14081,-0.0678 8.17979,0.71284 12.11698,2.34194 3.93715,1.49348 7.50096,3.83542 10.69145,7.02581 3.12255,3.12265 5.46449,6.68647 7.02581,10.69146 1.62914,3.93722 2.44373,8.01015 2.44377,12.2188 -4e-5,4.20874 -0.78068,8.31561 -2.34194,12.32063 -1.56132,3.86932 -3.9372,7.39919 -7.12764,10.58963 -3.1226,3.12261 -6.65248,5.49848 -10.58963,7.12764 -4.00506,1.5613 -8.11194,2.34195 -12.32063,2.34194 -4.14081,-0.0679 -8.21375,-0.88246 -12.2188,-2.44376 -3.93716,-1.62916 -7.46704,-4.00504 -10.58963,-7.12764 m 8.96045,-8.96046 c 1.90072,1.90074 4.039,3.3602 6.41488,4.37841 2.44376,0.95037 4.92146,1.45949 7.4331,1.52735 2.51164,-0.0679 4.98934,-0.57698 7.43311,-1.52735 2.37587,-1.01821 4.51415,-2.47768 6.41487,-4.37841 1.90069,-1.90067 3.36015,-4.03896 4.37841,-6.41487 0.95033,-2.44372 1.4255,-4.88748 1.42552,-7.33128 -2e-5,-2.57948 -0.50913,-5.05718 -1.52735,-7.43311 -0.95037,-2.44371 -2.37589,-4.61593 -4.27658,-6.5167 -1.90072,-1.90064 -4.03901,-3.29223 -6.41487,-4.17475 -2.37589,-1.01817 -4.81965,-1.49335 -7.33128,-1.42553 -2.51165,-0.0678 -4.9554,0.40736 -7.33129,1.42553 -2.44375,0.95041 -4.61598,2.37594 -6.51669,4.27658 -1.90069,1.90076 -3.32622,4.07299 -4.27659,6.51669 -1.01821,2.37593 -1.52733,4.85363 -1.52735,7.43311 2e-5,2.4438 0.4752,4.88756 1.42553,7.33128 0.95036,2.30803 2.37589,4.41238 4.27658,6.31305"
     style="font-size:144px;font-style:normal;font-variant:normal;font-weight:normal;font-stretch:normal;text-align:start;line-height:125%;letter-spacing:0px;word-spacing:0px;writing-mode:lr-tb;text-anchor:start;fill:url(#linearGradient4391);fill-opacity:1;stroke:#500000;stroke-width:4;stroke-miterlimit:4;stroke-opacity:1;stroke-dasharray:none;font-family:REZ;-inkscape-font-specification:REZ"
     id="path3013" /><path
     inkscape:connector-curvature="0"
     d="m 468.92761,324.42521 9.06228,9.06228 -27.59413,27.59413 c -1.28974,1.28981 -1.93462,2.81716 -1.93465,4.58205 3e-5,1.76499 0.64491,3.29233 1.93465,4.58206 1.28978,1.2898 2.85107,1.96862 4.68387,2.03646 1.76496,4e-5 3.29231,-0.64484 4.58206,-1.93464 l 18.3282,-18.32821 c 1.9007,-1.90064 4.03898,-3.29223 6.41488,-4.17476 2.37586,-1.01817 4.78568,-1.52729 7.22946,-1.52735 2.51162,-0.0678 4.95538,0.40736 7.33128,1.42553 2.37585,0.88253 4.51414,2.27411 6.41487,4.17476 1.90067,1.90075 3.3262,4.07298 4.27658,6.5167 0.95032,2.30804 1.42549,4.7518 1.42553,7.33128 -4e-5,2.4438 -0.47521,4.88756 -1.42553,7.33128 -0.95038,2.30803 -2.37591,4.41238 -4.27658,6.31305 l -27.49231,27.49231 -9.06228,-9.06228 27.49231,-27.49231 c 1.35762,-1.35761 2.03644,-2.9189 2.03647,-4.68388 -3e-5,-1.76489 -0.67885,-3.32618 -2.03647,-4.68387 -1.28978,-1.28971 -2.81713,-1.9346 -4.58205,-1.93465 -1.76496,5e-5 -3.32625,0.67887 -4.68388,2.03647 l -18.3282,18.32821 c -1.9007,1.90073 -4.03899,3.3602 -6.41488,4.37841 -2.37587,0.88248 -4.78568,1.32373 -7.22946,1.3237 -2.51162,-0.0679 -4.95538,-0.54304 -7.33128,-1.42553 -2.37585,-1.0182 -4.51414,-2.47767 -6.41487,-4.3784 -1.90068,-1.90068 -3.3262,-4.00502 -4.27658,-6.31305 -0.95032,-2.44373 -1.4255,-4.88749 -1.42553,-7.33129 4e-5,-2.44371 0.47521,-4.81959 1.42553,-7.12763 0.95038,-2.44371 2.37591,-4.61594 4.27658,-6.5167 l 27.59413,-27.59413"
     style="font-size:144px;font-style:normal;font-variant:normal;font-weight:normal;font-stretch:normal;text-align:start;line-height:125%;letter-spacing:0px;word-spacing:0px;writing-mode:lr-tb;text-anchor:start;fill:url(#linearGradient4393);fill-opacity:1;stroke:#500000;stroke-width:4;stroke-miterlimit:4;stroke-opacity:1;stroke-dasharray:none;font-family:REZ;-inkscape-font-specification:REZ"
     id="path3015" /></g><text
   sodipodi:linespacing="125%"
   id="text3022"
   y="243.49962"
   x="97.626709"
   style="font-size:13.12819576px;font-style:normal;font-variant:normal;font-weight:normal;font-stretch:normal;text-align:start;line-height:125%;letter-spacing:0px;word-spacing:0px;writing-mode:lr-tb;text-anchor:start;fill:#9f9f9f;fill-opacity:1;stroke:none;font-family:Monospace;-inkscape-font-specification:Monospace"
   xml:space="preserve"><tspan
     style="fill:#9f9f9f;fill-opacity:1"
     y="243.49962"
     x="97.626709"
     id="tspan3024"
     sodipodi:role="line">www.ipredia.org</tspan></text>

</g>


</svg>